<?xml version="1.0" encoding="utf-8"?>
<!-- Generator: Adobe Illustrator 22.0.0, SVG Export Plug-In . SVG Version: 6.00 Build 0)  -->
<svg version="1.1" id="Calque_1" xmlns="http://www.w3.org/2000/svg" x="0px"
     y="0px"
     viewBox="0 0 230.1 84.7" style="enable-background:new 0 0 230.1 84.7;" xml:space="preserve">
<style type="text/css">
	.st0{fill:#135594;}
	.st1{fill:#FFFFFF;}
</style>
    <g>
	<path class="st0" d="M83.6,42.3c-0.3,19.5-13.3,36.6-31.7,41.2C30.2,88.9,8.3,76.2,2,54.5C-4.3,33.1,6.7,10.4,27.2,2.7
		c23.4-8.9,49.3,5.1,54.9,29.7C82.9,35.6,83.1,39,83.6,42.3z M64.7,38.3c0,4.7,0,9.1,0,13.5c0,3.6,0,3.5,3.6,3.6
		c1.6,0,1.9-0.6,1.9-2c-0.1-6,0-12.1,0-18.1c0-2.4,0-2.4-2.4-2.4c-17.1,0-34.2,0-51.2,0c-3.4,0-3.2-0.6-3.3,3.3
		c0,1.6,0.4,2.2,2.1,2.2c15.7-0.1,31.4,0,47.1,0C63,38.3,63.7,38.3,64.7,38.3z M25.4,45.7c3.8,0,7.4,0,11.1,0c0,2.2,0,4.3,0,6.4
		c0,3.6-0.4,3.1,3.3,3.2c1.3,0,1.7-0.4,1.7-1.7c-0.1-4-0.1-8,0-12c0-1.3-0.5-1.7-1.7-1.7c-5.9,0-11.7,0-17.6,0
		c-1.4,0-1.8,0.5-1.8,1.9c0.1,3.5,0,7,0,10.4c0,3.5-0.4,3,3.2,3.1c1.4,0,1.8-0.5,1.8-1.8C25.4,51,25.4,48.5,25.4,45.7z M58.8,45.7
		c0,3.3,0,6.4,0,9.7c0.8,0,1.5-0.1,2.1,0c1.8,0.3,2.3-0.5,2.2-2.2c-0.1-3.8-0.1-7.6,0-11.3c0-1.5-0.5-1.9-1.9-1.9
		c-5.5,0.1-10.9,0-16.4,0c-0.6,0-1.1,0.1-1.8,0.2c0,4.8,0,9.5,0,14.2c0,0.3,0.1,0.8,0.2,0.8c1.3,0.1,2.6,0.2,3.9,0.1
		c0.3,0,0.5-1.2,0.5-1.9c0.1-2.5,0-5.1,0-7.6C51.6,45.7,55,45.7,58.8,45.7z M13.2,47.4C13.2,47.4,13.2,47.4,13.2,47.4
		c0,1.3,0,2.7,0,4c0.1,4.6-0.6,3.8,4,3.9c1.2,0,1.6-0.4,1.6-1.6c-0.1-3.3,0-6.6,0-9.9c0-4.1,0-4.1-4.1-3.9c-1.1,0.1-1.5,0.5-1.5,1.6
		C13.2,43.5,13.2,45.5,13.2,47.4z"/>
        <path class="st1" d="M64.7,38.3c-0.9,0-1.6,0-2.3,0c-15.7,0-31.4,0-47.1,0c-1.7,0-2.2-0.5-2.1-2.2c0.1-3.9-0.1-3.3,3.3-3.3
		c17.1,0,34.2,0,51.2,0c2.4,0,2.4,0,2.4,2.4c0,6,0,12.1,0,18.1c0,1.5-0.3,2.1-1.9,2c-3.6-0.1-3.6,0-3.6-3.6
		C64.7,47.4,64.7,43,64.7,38.3z"/>
        <path class="st1" d="M25.4,45.7c0,2.7-0.1,5.3,0,7.8c0,1.3-0.4,1.9-1.8,1.8c-3.6-0.1-3.2,0.4-3.2-3.1c0-3.5,0-7,0-10.4
		c0-1.3,0.4-1.9,1.8-1.9c5.9,0,11.7,0,17.6,0c1.2,0,1.8,0.4,1.7,1.7c-0.1,4-0.1,8,0,12c0,1.3-0.4,1.7-1.7,1.7
		c-3.7-0.1-3.3,0.4-3.3-3.2c0-2.1,0-4.2,0-6.4C32.8,45.7,29.2,45.7,25.4,45.7z"/>
        <path class="st1" d="M58.8,45.7c-3.8,0-7.3,0-11,0c0,2.5,0,5.1,0,7.6c0,0.7-0.3,1.9-0.5,1.9c-1.3,0.2-2.6,0-3.9-0.1
		c-0.1,0-0.2-0.5-0.2-0.8c0-4.7,0-9.4,0-14.2c0.7-0.1,1.3-0.2,1.8-0.2c5.5,0,10.9,0,16.4,0c1.4,0,1.9,0.4,1.9,1.9
		c-0.1,3.8-0.1,7.6,0,11.3c0.1,1.8-0.4,2.5-2.2,2.2c-0.6-0.1-1.3,0-2.1,0C58.8,52.1,58.8,49,58.8,45.7z"/>
        <path class="st1" d="M13.2,47.4c0-2,0-3.9,0-5.9c0-1.1,0.4-1.5,1.5-1.6c4.1-0.2,4.1-0.2,4.1,3.9c0,3.3,0,6.6,0,9.9
		c0,1.2-0.4,1.7-1.6,1.6c-4.6-0.1-3.9,0.7-4-3.9C13.2,50.1,13.2,48.8,13.2,47.4C13.2,47.4,13.2,47.4,13.2,47.4z"/>
</g>
    <g>
	<path class="st1"
          d="M119.5,54.6h-17l-3.1,8.7h-7l14.8-39.6h7.5l14.8,39.6h-7L119.5,54.6z M117.7,49.6L111,30.8l-6.7,18.8H117.7z"
    />
        <path class="st1" d="M137.5,58.2h13.9v5.1H131V23.1h6.5V58.2z"/>
        <path class="st1" d="M183.5,23.1l-13.4,25.6v14.6h-6.6V48.6l-13.5-25.6h7.5l9.2,18.6l9.2-18.6H183.5z"/>
        <path class="st1"
              d="M209,54.6h-17l-3.1,8.7h-7l14.8-39.6h7.5L219,63.3h-7L209,54.6z M207.2,49.6l-6.7-18.8l-6.7,18.8H207.2z"/>
</g>
</svg>
