<?xml version="1.0" encoding="UTF-8"?><svg id="Calque_1" xmlns="http://www.w3.org/2000/svg" viewBox="0 0 312.85 96.49"><defs><style>.cls-1{fill:#135594;}.cls-2{fill:#f4f4f4;}.cls-3{fill:#fff;}</style></defs><g><path class="cls-1" d="M83.34,42.32c-.28,19.53-13.29,36.55-31.72,41.15-21.67,5.41-43.56-7.28-49.87-28.91C-4.51,33.12,6.52,10.43,26.97,2.67c23.35-8.86,49.29,5.13,54.91,29.69,.75,3.26,.99,6.64,1.46,9.96Zm-18.89-4.02c0,4.68,0,9.09,0,13.5,0,3.62,0,3.53,3.56,3.62,1.61,.04,1.93-.56,1.91-2.02-.07-6.04-.03-12.08-.03-18.13q0-2.36-2.4-2.37c-17.08,0-34.16-.01-51.24,0-3.36,0-3.21-.63-3.31,3.27-.04,1.64,.41,2.17,2.13,2.16,15.69-.07,31.37-.04,47.06-.04,.69,0,1.37,0,2.32,0Zm-39.26,7.47h11.06c0,2.23-.02,4.31,0,6.4,.03,3.62-.44,3.13,3.3,3.23,1.3,.04,1.73-.42,1.71-1.7-.06-4.01-.06-8.01,0-12.02,.02-1.32-.49-1.72-1.74-1.71-5.86,.03-11.73,.04-17.59,0-1.39-.01-1.79,.55-1.76,1.87,.07,3.48,0,6.97,.03,10.45,.02,3.49-.37,3,3.23,3.12,1.42,.05,1.82-.48,1.78-1.82-.08-2.55-.02-5.1-.02-7.81Zm33.43-.06v9.66c.84,0,1.49-.08,2.1,.01,1.79,.27,2.29-.46,2.23-2.22-.13-3.77-.1-7.55,0-11.33,.04-1.47-.47-1.91-1.89-1.89-5.46,.06-10.92,.02-16.39,.03-.56,0-1.13,.1-1.84,.17,0,4.83,0,9.53,.01,14.23,0,.27,.14,.76,.25,.76,1.32,.1,2.65,.23,3.94,.08,.26-.03,.52-1.24,.53-1.91,.06-2.53,.03-5.06,.03-7.59h11.04Zm-45.65,1.74h0c0,1.34-.02,2.67,0,4.01,.07,4.63-.62,3.8,3.99,3.93,1.23,.04,1.63-.43,1.61-1.62-.05-3.31-.02-6.62-.02-9.93,0-4.12,0-4.08-4.08-3.88-1.13,.05-1.54,.48-1.52,1.58,.04,1.97,.01,3.95,.01,5.92Z"/><path class="cls-3" d="M64.45,38.3c-.94,0-1.63,0-2.32,0-15.69,0-31.37-.03-47.06,.04-1.73,0-2.18-.53-2.13-2.16,.1-3.9-.05-3.27,3.31-3.27,17.08-.02,34.16-.01,51.24,0q2.4,0,2.4,2.37c0,6.04-.04,12.09,.03,18.13,.02,1.46-.3,2.06-1.91,2.02-3.56-.09-3.56,0-3.56-3.62,0-4.41,0-8.82,0-13.5Z"/><path class="cls-3" d="M25.19,45.77c0,2.71-.05,5.26,.02,7.81,.04,1.33-.36,1.86-1.78,1.82-3.6-.12-3.21,.37-3.23-3.12-.02-3.48,.04-6.97-.03-10.45-.03-1.32,.37-1.88,1.76-1.87,5.86,.05,11.73,.04,17.59,0,1.24,0,1.76,.4,1.74,1.71-.06,4-.06,8.01,0,12.02,.02,1.28-.42,1.74-1.71,1.7-3.73-.1-3.26,.39-3.3-3.23-.02-2.08,0-4.17,0-6.4h-11.06Z"/><path class="cls-3" d="M58.62,45.71h-11.04c0,2.54,.04,5.06-.03,7.59-.02,.67-.27,1.88-.53,1.91-1.3,.16-2.63,.02-3.94-.08-.1,0-.24-.5-.25-.76-.01-4.7-.01-9.39-.01-14.23,.71-.07,1.28-.17,1.84-.17,5.46-.01,10.92,.03,16.39-.03,1.42-.02,1.93,.42,1.89,1.89-.09,3.77-.12,7.56,0,11.33,.06,1.76-.44,2.49-2.23,2.22-.62-.09-1.26-.01-2.1-.01v-9.66Z"/><path class="cls-3" d="M12.98,47.45c0-1.97,.03-3.95-.01-5.92-.02-1.09,.39-1.52,1.52-1.58,4.08-.2,4.08-.23,4.08,3.88,0,3.31-.04,6.62,.02,9.93,.02,1.19-.38,1.65-1.61,1.62-4.61-.13-3.92,.7-3.99-3.93-.02-1.34,0-2.67,0-4.01h0Z"/></g><g><path class="cls-2" d="M125.55,26.44c3.27,2.51,5.47,5.91,6.61,10.2h-6.9c-.95-2.43-2.46-4.36-4.53-5.79-2.07-1.43-4.61-2.14-7.61-2.14-2.39,0-4.53,.59-6.41,1.77-1.88,1.18-3.36,2.86-4.45,5.04-1.08,2.19-1.62,4.74-1.62,7.67s.54,5.42,1.62,7.61c1.08,2.19,2.56,3.87,4.45,5.04,1.88,1.18,4.02,1.77,6.41,1.77,3,0,5.54-.71,7.61-2.14,2.07-1.43,3.58-3.33,4.53-5.73h6.9c-1.14,4.29-3.34,7.69-6.61,10.17-3.27,2.49-7.37,3.73-12.31,3.73-3.8,0-7.16-.86-10.09-2.59-2.93-1.73-5.19-4.14-6.78-7.24-1.6-3.1-2.39-6.64-2.39-10.63s.8-7.53,2.39-10.63c1.6-3.1,3.86-5.52,6.78-7.27,2.93-1.75,6.29-2.62,10.09-2.62,4.94,0,9.04,1.25,12.31,3.76Z"/><path class="cls-2" d="M156.45,63.32l-10.03-16.07h-4.62v16.07h-6.5V23.08h14.19c4.6,0,8.08,1.12,10.46,3.36,2.37,2.24,3.56,5.21,3.56,8.89,0,3.15-.88,5.74-2.65,7.75-1.77,2.01-4.32,3.31-7.67,3.88l10.54,16.36h-7.3Zm-14.65-20.69h7.18c5.24,0,7.87-2.32,7.87-6.95,0-2.2-.64-3.92-1.91-5.16-1.27-1.23-3.26-1.85-5.96-1.85h-7.18v13.96Z"/><path class="cls-2" d="M194.78,25.19c3.02,1.75,5.4,4.19,7.12,7.32,1.73,3.14,2.59,6.68,2.59,10.63s-.87,7.5-2.59,10.63c-1.73,3.13-4.1,5.59-7.12,7.35-3.02,1.77-6.39,2.65-10.12,2.65s-7.15-.88-10.17-2.65c-3.02-1.77-5.41-4.22-7.15-7.35-1.75-3.14-2.62-6.68-2.62-10.63s.87-7.5,2.62-10.63c1.75-3.13,4.13-5.58,7.15-7.32,3.02-1.75,6.41-2.62,10.17-2.62s7.1,.87,10.12,2.62Zm-17.01,5.19c-2.01,1.18-3.58,2.87-4.7,5.07-1.12,2.2-1.68,4.77-1.68,7.69s.56,5.49,1.68,7.7c1.12,2.2,2.69,3.9,4.7,5.07,2.01,1.18,4.31,1.77,6.9,1.77s4.82-.59,6.81-1.77c2-1.18,3.55-2.87,4.67-5.07,1.12-2.2,1.68-4.77,1.68-7.7s-.56-5.49-1.68-7.69c-1.12-2.2-2.68-3.89-4.67-5.07-1.99-1.18-4.27-1.77-6.81-1.77s-4.88,.59-6.9,1.77Z"/><path class="cls-2" d="M240.24,63.32h-6.5l-19.55-29.7v29.7h-6.5V23.14h6.5l19.55,29.81V23.14h6.5V63.32Z"/><path class="cls-2" d="M273.49,25.19c3.02,1.75,5.4,4.19,7.12,7.32,1.73,3.14,2.59,6.68,2.59,10.63s-.87,7.5-2.59,10.63c-1.73,3.13-4.1,5.59-7.12,7.35-3.02,1.77-6.39,2.65-10.12,2.65s-7.15-.88-10.17-2.65c-3.02-1.77-5.41-4.22-7.15-7.35-1.75-3.14-2.62-6.68-2.62-10.63s.87-7.5,2.62-10.63c1.75-3.13,4.13-5.58,7.15-7.32,3.02-1.75,6.41-2.62,10.17-2.62s7.1,.87,10.12,2.62Zm-17.01,5.19c-2.01,1.18-3.58,2.87-4.7,5.07-1.12,2.2-1.68,4.77-1.68,7.69s.56,5.49,1.68,7.7c1.12,2.2,2.69,3.9,4.7,5.07,2.01,1.18,4.31,1.77,6.9,1.77s4.82-.59,6.81-1.77c2-1.18,3.55-2.87,4.67-5.07,1.12-2.2,1.68-4.77,1.68-7.7s-.56-5.49-1.68-7.69c-1.12-2.2-2.68-3.89-4.67-5.07-1.99-1.18-4.27-1.77-6.81-1.77s-4.88,.59-6.9,1.77Z"/><path class="cls-2" d="M311.43,58.11c-.95,1.69-2.39,3.05-4.33,4.08-1.94,1.03-4.31,1.54-7.12,1.54s-5.19-.48-7.35-1.45c-2.17-.97-3.9-2.33-5.19-4.08-1.29-1.75-2.03-3.76-2.22-6.04h6.95c.19,1.75,.94,3.25,2.25,4.5,1.31,1.25,3.07,1.88,5.27,1.88,1.98,0,3.51-.53,4.59-1.6,1.08-1.06,1.62-2.43,1.62-4.1,0-1.44-.4-2.63-1.2-3.56-.8-.93-1.79-1.66-2.96-2.19-1.18-.53-2.79-1.14-4.84-1.82-2.51-.8-4.55-1.6-6.13-2.39-1.58-.8-2.92-1.96-4.02-3.48-1.1-1.52-1.65-3.51-1.65-5.98,0-2.17,.53-4.07,1.6-5.7,1.06-1.63,2.58-2.9,4.56-3.79,1.97-.89,4.25-1.34,6.84-1.34,4.1,0,7.36,.99,9.78,2.96,2.41,1.98,3.79,4.56,4.13,7.75h-7.01c-.27-1.52-.98-2.82-2.14-3.9-1.16-1.08-2.75-1.62-4.76-1.62-1.82,0-3.29,.47-4.39,1.4-1.1,.93-1.65,2.27-1.65,4.02,0,1.37,.38,2.5,1.14,3.39,.76,.89,1.72,1.6,2.88,2.11,1.16,.51,2.75,1.11,4.76,1.8,2.55,.8,4.63,1.61,6.24,2.42,1.61,.82,2.98,2,4.1,3.56,1.12,1.56,1.68,3.61,1.68,6.16,0,1.98-.48,3.81-1.42,5.5Z"/></g></svg>