<?xml version="1.0" encoding="UTF-8"?><svg id="Calque_1" xmlns="http://www.w3.org/2000/svg" viewBox="0 0 83.66 84.7"><defs><style>.cls-1{fill:#135594;}.cls-2{fill:#fff;}</style></defs><path class="cls-1" d="M83.66,42.31c-.28,19.52-13.35,36.54-31.84,41.14-21.76,5.41-43.73-7.27-50.06-28.9C-4.53,33.11,6.54,10.43,27.07,2.67c23.44-8.85,49.48,5.13,55.12,29.68,.75,3.26,.99,6.64,1.47,9.96Z"/><g><path class="cls-2" d="M20.54,52.17c.79,.61,1.33,1.44,1.61,2.48h-1.68c-.23-.59-.6-1.06-1.1-1.41-.5-.35-1.12-.52-1.85-.52-.58,0-1.1,.14-1.56,.43-.46,.29-.82,.7-1.08,1.23-.26,.53-.39,1.15-.39,1.86s.13,1.32,.39,1.85c.26,.53,.62,.94,1.08,1.23,.46,.29,.98,.43,1.56,.43,.73,0,1.35-.17,1.85-.52s.87-.81,1.1-1.39h1.68c-.28,1.04-.81,1.87-1.61,2.47s-1.79,.91-2.99,.91c-.92,0-1.74-.21-2.45-.63s-1.26-1.01-1.65-1.76c-.39-.75-.58-1.61-.58-2.58s.19-1.83,.58-2.58c.39-.75,.94-1.34,1.65-1.77s1.53-.64,2.45-.64c1.2,0,2.2,.31,2.99,.91Z"/><path class="cls-2" d="M28.87,61.14l-2.44-3.91h-1.12v3.91h-1.58v-9.78h3.45c1.12,0,1.97,.27,2.54,.82,.58,.55,.87,1.27,.87,2.16,0,.77-.21,1.4-.64,1.88-.43,.49-1.05,.8-1.86,.94l2.56,3.98h-1.77Zm-3.56-5.03h1.75c1.27,0,1.91-.56,1.91-1.69,0-.54-.15-.95-.46-1.25-.31-.3-.79-.45-1.45-.45h-1.75v3.4Z"/><path class="cls-2" d="M39.01,51.87c.73,.43,1.31,1.02,1.73,1.78,.42,.76,.63,1.62,.63,2.58s-.21,1.82-.63,2.58c-.42,.76-1,1.36-1.73,1.79-.73,.43-1.55,.64-2.46,.64s-1.74-.21-2.47-.64c-.73-.43-1.31-1.03-1.74-1.79-.43-.76-.64-1.62-.64-2.58s.21-1.82,.64-2.58c.42-.76,1-1.36,1.74-1.78,.73-.42,1.56-.64,2.47-.64s1.73,.21,2.46,.64Zm-4.14,1.26c-.49,.29-.87,.7-1.14,1.23-.27,.54-.41,1.16-.41,1.87s.14,1.33,.41,1.87c.27,.54,.65,.95,1.14,1.23,.49,.29,1.05,.43,1.68,.43s1.17-.14,1.66-.43,.86-.7,1.14-1.23c.27-.54,.41-1.16,.41-1.87s-.14-1.33-.41-1.87c-.27-.54-.65-.95-1.14-1.23-.48-.29-1.04-.43-1.66-.43s-1.19,.14-1.68,.43Z"/><path class="cls-2" d="M50.87,61.14h-1.58l-4.75-7.22v7.22h-1.58v-9.77h1.58l4.75,7.25v-7.25h1.58v9.77Z"/><path class="cls-2" d="M59.78,51.87c.73,.43,1.31,1.02,1.73,1.78,.42,.76,.63,1.62,.63,2.58s-.21,1.82-.63,2.58c-.42,.76-1,1.36-1.73,1.79-.73,.43-1.55,.64-2.46,.64s-1.74-.21-2.47-.64c-.73-.43-1.31-1.03-1.74-1.79-.43-.76-.64-1.62-.64-2.58s.21-1.82,.64-2.58c.42-.76,1-1.36,1.74-1.78,.73-.42,1.56-.64,2.47-.64s1.73,.21,2.46,.64Zm-4.14,1.26c-.49,.29-.87,.7-1.14,1.23-.27,.54-.41,1.16-.41,1.87s.14,1.33,.41,1.87c.27,.54,.65,.95,1.14,1.23,.49,.29,1.05,.43,1.68,.43s1.17-.14,1.66-.43,.86-.7,1.14-1.23c.27-.54,.41-1.16,.41-1.87s-.14-1.33-.41-1.87c-.27-.54-.65-.95-1.14-1.23-.48-.29-1.04-.43-1.66-.43s-1.19,.14-1.68,.43Z"/><path class="cls-2" d="M69.82,59.87c-.23,.41-.58,.74-1.05,.99-.47,.25-1.05,.37-1.73,.37s-1.26-.12-1.79-.35c-.53-.24-.95-.57-1.26-.99s-.49-.91-.54-1.47h1.69c.05,.42,.23,.79,.55,1.09,.32,.3,.75,.46,1.28,.46,.48,0,.85-.13,1.12-.39,.26-.26,.39-.59,.39-1,0-.35-.1-.64-.29-.87-.19-.23-.43-.4-.72-.53-.29-.13-.68-.28-1.18-.44-.61-.19-1.11-.39-1.49-.58-.38-.19-.71-.48-.98-.85-.27-.37-.4-.85-.4-1.45,0-.53,.13-.99,.39-1.39,.26-.4,.63-.7,1.11-.92,.48-.22,1.03-.33,1.66-.33,1,0,1.79,.24,2.38,.72,.59,.48,.92,1.11,1,1.88h-1.7c-.06-.37-.24-.69-.52-.95s-.67-.4-1.16-.4c-.44,0-.8,.11-1.07,.34-.27,.23-.4,.55-.4,.98,0,.33,.09,.61,.28,.82,.18,.22,.42,.39,.7,.51,.28,.12,.67,.27,1.16,.44,.62,.19,1.12,.39,1.52,.59,.39,.2,.73,.49,1,.87,.27,.38,.41,.88,.41,1.5,0,.48-.12,.93-.35,1.34Z"/></g><g><path class="cls-2" d="M64.66,31.25c-.95,0-1.64,0-2.33,0-15.77,0-31.55-.03-47.32,.04-1.74,0-2.19-.53-2.15-2.16,.1-3.9-.06-3.26,3.33-3.27,17.17-.02,34.35-.01,51.52,0q2.41,0,2.41,2.37c0,6.04-.04,12.08,.03,18.12,.02,1.46-.3,2.06-1.92,2.02-3.58-.09-3.58,0-3.58-3.62,0-4.41,0-8.81,0-13.49Z"/><path class="cls-2" d="M25.19,38.72c0,2.71-.05,5.26,.02,7.81,.04,1.33-.36,1.86-1.79,1.82-3.62-.12-3.23,.37-3.25-3.12-.02-3.48,.04-6.97-.03-10.45-.03-1.32,.37-1.88,1.77-1.87,5.9,.05,11.79,.04,17.69,0,1.25,0,1.77,.4,1.74,1.71-.07,4-.06,8.01,0,12.01,.02,1.28-.42,1.74-1.72,1.7-3.75-.1-3.28,.39-3.31-3.23-.02-2.08,0-4.17,0-6.39h-11.12Z"/><path class="cls-2" d="M58.8,38.67h-11.1c0,2.53,.04,5.06-.03,7.59-.02,.67-.28,1.88-.54,1.91-1.3,.16-2.64,.02-3.97-.08-.1,0-.25-.5-.25-.76-.02-4.7-.01-9.39-.01-14.22,.72-.07,1.28-.17,1.85-.17,5.49-.01,10.98,.03,16.47-.03,1.43-.02,1.94,.42,1.9,1.89-.09,3.77-.12,7.55,0,11.33,.06,1.76-.44,2.49-2.24,2.22-.62-.09-1.27-.01-2.12-.01v-9.66Z"/><path class="cls-2" d="M12.91,40.41c0-1.97,.03-3.95-.01-5.92-.02-1.09,.39-1.52,1.53-1.58,4.1-.2,4.1-.23,4.1,3.88,0,3.31-.04,6.62,.02,9.93,.02,1.19-.39,1.65-1.62,1.62-4.64-.13-3.94,.7-4.01-3.93-.02-1.33,0-2.67,0-4.01h0Z"/></g></svg>